<svg viewBox="0 0 100 100" xmlns="http://www.w3.org/2000/svg">
  <!-- Soft forest spirit body -->
  <path d="M 50 15 C 32 15 25 35 25 60 C 25 75 32 85 50 85 C 68 85 75 75 75 60 C 75 35 68 15 50 15 Z" fill="#7eb5a6" />
  <!-- Cute ears/horns -->
  <path d="M 32 18 C 30 5 20 8 23 25 Z" fill="#7eb5a6" />
  <path d="M 68 18 C 70 5 80 8 77 25 Z" fill="#7eb5a6" />
  <!-- Big soft cream belly -->
  <path d="M 50 42 C 38 42 33 52 33 67 C 33 78 38 82 50 82 C 62 82 67 78 67 67 C 67 52 62 42 50 42 Z" fill="#f5f0e6" />
  <!-- Belly markings (little arrows ^ ^ ^) -->
  <path d="M 45 52 L 50 48 L 55 52" stroke="#7eb5a6" stroke-width="2.5" stroke-linecap="round" stroke-linejoin="round" fill="none" />
  <path d="M 40 60 L 44 57 L 48 60" stroke="#7eb5a6" stroke-width="2.5" stroke-linecap="round" stroke-linejoin="round" fill="none" />
  <path d="M 52 60 L 56 57 L 60 60" stroke="#7eb5a6" stroke-width="2.5" stroke-linecap="round" stroke-linejoin="round" fill="none" />
  <!-- Big curious eyes -->
  <circle cx="40" cy="35" r="5" fill="#f5f0e6" />
  <circle cx="40" cy="35" r="2.5" fill="#3a4f41" />
  <circle cx="60" cy="35" r="5" fill="#f5f0e6" />
  <circle cx="60" cy="35" r="2.5" fill="#3a4f41" />
  <!-- Small nose/mouth -->
  <path d="M 48 38 L 52 38" stroke="#3a4f41" stroke-width="2" stroke-linecap="round" />
  <!-- Blushing cheeks -->
  <circle cx="33" cy="39" r="3" fill="#d97d64" opacity="0.6" />
  <circle cx="67" cy="39" r="3" fill="#d97d64" opacity="0.6" />
</svg>
