<svg viewBox="0 0 100 100" xmlns="http://www.w3.org/2000/svg">
  <!-- Fox ears -->
  <path d="M 22 45 L 20 15 L 42 35 Z" fill="#d97d64" />
  <path d="M 25 42 L 24 22 L 38 34 Z" fill="#f5f0e6" />
  <path d="M 78 45 L 80 15 L 58 35 Z" fill="#d97d64" />
  <path d="M 75 42 L 76 22 L 62 34 Z" fill="#f5f0e6" />
  <!-- Fox face/body -->
  <path d="M 50 78 C 22 78 20 50 20 48 C 20 46 25 38 50 38 C 75 38 80 46 80 48 C 80 50 78 78 50 78 Z" fill="#d97d64" />
  <!-- Cheek fluff / cream patches -->
  <path d="M 20 48 C 20 48 28 65 50 65 C 72 65 80 48 80 48 C 80 48 76 75 50 75 C 24 75 20 48 20 48 Z" fill="#f5f0e6" />
  <!-- Big eyes (closed squint, very cute and cozy anime style) -->
  <path d="M 32 48 Q 38 43 42 48" stroke="#4d3b2b" stroke-width="3.5" stroke-linecap="round" fill="none" />
  <path d="M 68 48 Q 62 43 58 48" stroke="#4d3b2b" stroke-width="3.5" stroke-linecap="round" fill="none" />
  <!-- Small nose -->
  <polygon points="48,56 52,56 50,59" fill="#4d3b2b" />
  <!-- Blush -->
  <circle cx="28" cy="54" r="3.5" fill="#d97d64" opacity="0.5" />
  <circle cx="72" cy="54" r="3.5" fill="#d97d64" opacity="0.5" />
</svg>
