<svg viewBox="0 0 100 100" xmlns="http://www.w3.org/2000/svg">
  <!-- Flame background glow -->
  <path d="M 50 8 C 22 40 20 60 20 72 C 20 84 32 92 50 92 C 68 92 80 84 80 72 C 80 60 78 40 50 8 Z" fill="#c49a6c" opacity="0.3" />
  <!-- Flame inner body -->
  <path d="M 50 18 C 26 44 25 62 25 72 C 25 82 35 88 50 88 C 65 88 75 82 75 72 C 75 62 74 44 50 18 Z" fill="#d97d64" />
  <!-- Bright center -->
  <path d="M 50 32 C 34 52 33 66 33 72 C 33 80 40 82 50 82 C 60 82 67 80 67 72 C 67 66 66 52 50 32 Z" fill="#f5f0e6" />
  <!-- Cute fire eyes (with worried/excited expression) -->
  <circle cx="42" cy="56" r="6" fill="#f5f0e6" stroke="#c49a6c" stroke-width="1.5" />
  <circle cx="42" cy="56" r="3.5" fill="#4d3b2b" />
  <circle cx="44" cy="54" r="1" fill="#fff" />
  <circle cx="58" cy="56" r="6" fill="#f5f0e6" stroke="#c49a6c" stroke-width="1.5" />
  <circle cx="58" cy="56" r="3.5" fill="#4d3b2b" />
  <circle cx="60" cy="54" r="1" fill="#fff" />
  <!-- Little flame mouth (open O shape, surprised) -->
  <circle cx="50" cy="68" r="3.5" fill="#4d3b2b" />
  <!-- Little red tongue/center -->
  <path d="M 48 68 C 48 70 52 70 52 68 Z" fill="#d97d64" />
</svg>
